<svg xmlns="http://www.w3.org/2000/svg" width="176" height="32" viewBox="0 0 176 32">
  <g fill="none" fill-rule="evenodd">
    <path fill="#FFF" d="M31.2631579,0.266666667 C32.5617814,0.229333333 33.9966802,0.298666667 35.4289069,0.357333333 C37.2004858,0.429333333 38.9720648,0.525333333 40.7356275,0.712 C43.9477049,1.01016675 47.1267108,1.59381506 50.2348178,2.456 C50.9712866,2.6609409 51.6869496,2.93412899 52.3724696,3.272 C52.8897767,3.51803608 53.3249263,3.90786108 53.625668,4.39466667 C54.2536032,5.432 54.9109312,6.45333333 55.6190283,7.44 C56.7657652,9.07710597 58.2590534,10.442657 59.9931984,11.44 C61.4135287,12.222384 62.7160935,13.200925 63.8623482,14.3466667 C64.3326835,14.8214822 64.7493507,15.3464059 65.1048583,15.912 C66.067373,17.4102321 66.2474224,19.2795585 65.588502,20.9333333 C65.1306463,22.1113655 64.4785726,23.2046723 63.6592713,24.168 C62.8153242,25.1434348 61.815914,25.9732426 60.7012955,26.624 C58.8218115,27.762506 56.8052382,28.6585431 54.6998381,29.2906667 C52.4664991,29.9935222 50.1859382,30.5371133 47.8753846,30.9173333 C46.3558704,31.1786667 44.8283401,31.3884444 43.2927935,31.5466667 C41.8213765,31.6977778 40.3446154,31.808 38.8625101,31.8773333 C36.917247,31.9706667 34.9746559,32.032 33.0320648,31.9706667 C31.9124696,31.936 30.7955466,31.9066667 29.6812955,31.8373333 C28.1528745,31.7431111 26.6289069,31.6088889 25.1093927,31.4346667 C22.4673353,31.1385247 19.8475556,30.6699658 17.2668826,30.032 C14.3088801,29.3303844 11.4454987,28.2784808 8.73765182,26.8986667 C6.637776,25.843548 4.73375729,24.4384848 3.10761134,22.744 C1.96766361,21.5604821 1.09082517,20.1501975 0.534412955,18.6053333 C-0.355384615,16.0586667 -0.112226721,13.6 1.12493927,11.2186667 C2.09405794,9.44441984 3.43354883,7.89847818 5.05287449,6.68533333 C7.30977388,4.95484804 9.84897381,3.62601734 12.5587045,2.75733333 C14.7529609,2.03887826 17.0010287,1.49583075 19.2816194,1.13333333 C21.0077733,0.850666667 22.7553036,0.650666667 24.4868016,0.509333333 C25.4540891,0.429333333 26.4267206,0.397333333 27.3966802,0.344 C28.6338462,0.266666667 29.8736842,0.266666667 31.2631579,0.266666667 Z"/>
    <path fill="#211714" d="M26.7206478 18.176C26.9544961 17.9267433 27.0836108 17.5974502 27.0813765 17.256 27.0546559 16.384 27.0813765 15.512 27.0813765 14.6373333 27.0813765 14.3333333 27.0813765 14.3306667 27.3726316 14.328 27.9070445 14.328 28.4414575 14.328 28.9758704 14.328 29.2430769 14.328 29.2430769 14.328 29.2430769 14.5786667 29.2430769 15.7573333 29.2430769 16.9342222 29.2430769 18.1093333 29.240994 18.3162835 29.1767702 18.5178547 29.0587045 18.688 28.791498 19.0826667 28.5242915 19.488 28.2891498 19.88 28.0727126 20.2293333 28.0540081 20.1013333 28.3105263 20.4666667 28.7701215 21.1226667 29.2350607 21.7733333 29.6973279 22.4266667L29.8923887 22.712C29.8175709 22.8053333 29.740081 22.7733333 29.6732794 22.7733333 29.0426721 22.7733333 28.4093927 22.7733333 27.7787854 22.7733333 27.6206661 22.7883918 27.4675847 22.713038 27.3833198 22.5786667 27.2523887 22.3893333 27.1161134 22.2106667 26.9531174 22.0053333 26.7886409 22.1872282 26.6460523 22.3877019 26.5282591 22.6026667 26.4641296 22.6933333 26.4053441 22.7733333 26.2610526 22.7706667 25.4727935 22.7706667 24.6845344 22.7706667 23.8909312 22.7706667 23.9027305 22.6453303 23.9585749 22.5281993 24.048583 22.44 24.4654251 21.7706667 24.8876113 21.1066667 25.3097976 20.44 25.5155466 20.112 25.5155466 20.112 25.2750607 19.7893333 25.0078543 19.4213333 24.7406478 19.0453333 24.4360324 18.6906667 24.2275728 18.4356608 24.1209785 18.1127247 24.1367611 17.784 24.1367611 16.5466667 24.1367611 15.312 24.1367611 14.0746667 24.1367611 13.9893333 24.1367611 13.904 24.1367611 13.808 24.1367611 13.712 24.0859919 13.6266667 23.9630769 13.632 23.8909312 13.632 23.8187854 13.632 23.7439676 13.632 23.6237247 13.632 23.5676113 13.584 23.5676113 13.4613333 23.5676113 12.904 23.5676113 12.344 23.5676113 11.7866667 23.5676113 11.656 23.637085 11.6213333 23.7493117 11.6266667 23.8615385 11.632 23.8962753 11.6266667 23.9684211 11.6266667 24.0966802 11.6266667 24.1367611 11.5653333 24.1340891 11.448 24.1340891 11.2293333 24.1340891 11.0106667 24.1340891 10.792 24.1340891 10.656 24.1795142 10.6 24.3264777 10.6026667 24.9196761 10.6026667 25.5146559 10.6026667 26.111417 10.6026667 26.2717409 10.6026667 26.3251822 10.6666667 26.3198381 10.8186667 26.3144939 10.9706667 26.3198381 11.2053333 26.3198381 11.4 26.3198381 11.5946667 26.359919 11.6426667 26.5442915 11.632 26.811498 11.632 27.0787045 11.632 27.3459109 11.632 27.8803239 11.632 28.4387854 11.632 28.9865587 11.632 29.1736032 11.632 29.2537652 11.688 29.2537652 11.88 29.2537652 12.3626667 29.2537652 12.848 29.2537652 13.3333333 29.2537652 13.6346667 29.2537652 13.64 28.9518219 13.64L26.4668016 13.64C26.4298449 13.6352502 26.3928198 13.6482652 26.3670037 13.6750807 26.3411877 13.7018962 26.3296372 13.7393373 26.3358704 13.776 26.3358704 13.8586667 26.3358704 13.944 26.3358704 14.0426667 26.3358704 15.1093333 26.3358704 16.176 26.3358704 17.2426667 26.318945 17.5953549 26.4599218 17.9373147 26.7206478 18.176zM46.1919838 14.6906667L39.7790283 14.6906667C39.5118219 14.6906667 39.5118219 14.6906667 39.5118219 14.408 39.5118219 13.5093333 39.5118219 12.6133333 39.5118219 11.7146667 39.5118219 11.128 39.7790283 10.8533333 40.3909312 10.8506667 41.2406478 10.8506667 42.0903644 10.8506667 42.942753 10.8506667 43.1672065 10.8506667 43.4263968 10.9066667 43.4424291 10.5493333 43.4424291 10.472 43.5252632 10.4746667 43.5840486 10.4746667L45.6255061 10.4746667C45.7564372 10.4746667 45.7911741 10.544 45.7911741 10.656 45.7911741 10.888 45.7911741 11.1173333 45.7911741 11.3493333 45.8054867 11.5103839 45.7458206 11.6692194 45.6289486 11.7811899 45.5120767 11.8931603 45.3506178 11.9461758 45.1899595 11.9253333 44.4711741 11.9253333 43.7550607 11.9253333 43.0389474 11.9253333 42.7102834 11.9253333 42.3816194 11.9253333 42.0529555 11.9253333 41.8632389 11.9253333 41.8365182 12.0053333 41.8338462 12.1653333 41.8311741 12.3253333 41.9006478 12.368 42.0502834 12.368L45.4758704 12.368C45.788502 12.368 45.7938462 12.368 45.7911741 12.6853333 45.7911741 13.336 45.868664 13.2186667 45.2567611 13.2186667 44.1879352 13.2186667 43.1404858 13.2186667 42.0850202 13.2186667 41.8365182 13.2186667 41.8178138 13.24 41.8178138 13.4506667 41.8178138 13.592 41.8739271 13.6506667 42.0128745 13.6426667 42.0876923 13.6426667 42.1598381 13.6426667 42.2319838 13.6426667L50.2882591 13.6426667C50.4352227 13.6426667 50.5902024 13.6693333 50.57417 13.4346667 50.5581377 13.2 50.57417 13.2213333 50.3069636 13.2213333L47.2768421 13.2213333C46.7424291 13.2213333 46.7985425 13.2906667 46.7931984 12.736L46.7931984 12.664C46.7931984 12.3626667 46.7931984 12.36 47.0871255 12.36L50.2936032 12.36C50.5608097 12.36 50.614251 12.3013333 50.57417 12.048 50.5738023 12.0117228 50.5577015 11.9773844 50.5300284 11.9538587 50.5023553 11.9303329 50.4658253 11.9199282 50.4298785 11.9253333L47.0764372 11.9253333C46.8092308 11.9253333 46.8092308 11.9253333 46.7931984 11.6453333 46.7931984 11.4506667 46.7931984 11.256 46.7931984 11.064 46.7931984 10.872 46.86 10.8506667 47.0123077 10.8533333L51.8968421 10.8533333C52.0427988 10.8452909 52.1891857 10.856046 52.3323887 10.8853333 52.6582355 10.9412937 52.8989063 11.2194609 52.9068826 11.5493333 52.9068826 12.5306667 52.9068826 13.512 52.9068826 14.4826667 52.9068826 14.616 52.8721457 14.688 52.7251822 14.68 52.6396761 14.68 52.55417 14.68 52.4579757 14.68L46.1919838 14.6906667zM36.7649393 20.4106667L38.4109312 22.7093333C38.3441296 22.816 38.2506073 22.776 38.1757895 22.776 37.5211336 22.776 36.8638057 22.776 36.2091498 22.776 36.0525111 22.7908838 35.9010805 22.7153214 35.8190283 22.5813333 35.0441296 21.4853333 34.2585425 20.392 33.4756275 19.2986667 33.4307424 19.2421979 33.393046 19.1803932 33.3634008 19.1146667 33.3300599 19.0416155 33.3314666 18.9574622 33.3672305 18.8855615 33.4029945 18.8136609 33.4693102 18.7616634 33.5477733 18.744 33.6526652 18.7136206 33.7622653 18.7027731 33.8710931 18.712L37.9860729 18.712C38.0582186 18.712 38.1303644 18.712 38.2025101 18.712 38.2394562 18.7092593 38.27567 18.7232956 38.3010775 18.7502043 38.3264851 18.7771129 38.3383756 18.8140229 38.3334413 18.8506667 38.3334413 19.3217778 38.3334413 19.7937778 38.3334413 20.2666667 38.3334413 20.4053333 38.2185425 20.4 38.1223482 20.4L36.7649393 20.4 36.7649393 20.4106667z"/>
    <path fill="#211714" fill-rule="nonzero" d="M23.3939271 20.8213333L13.9989474 20.8213333C13.5660729 20.8213333 13.4992713 20.7466667 13.4939271 20.288 13.4939271 20.1786667 13.4939271 20.0693333 13.4939271 19.96 13.4939271 19.5333333 13.4939271 19.5733333 13.8974089 19.5733333L22.2102024 19.5733333C22.7018623 19.5733333 22.6430769 19.6213333 22.645749 19.1546667 22.645749 18.8373333 22.645749 18.5226667 22.645749 18.208 22.645749 17.7466667 22.6991903 17.7946667 22.2449393 17.7946667L14.0764372 17.7946667C13.488583 17.7946667 13.4965992 17.7946667 13.4912551 17.1893333 13.486213 17.0083605 13.5615444 16.8344098 13.6970745 16.7140676 13.8326046 16.5937255 14.0144859 16.5392877 14.1940081 16.5653333L22.5442105 16.5653333C22.6297166 16.5653333 22.7152227 16.5653333 22.811417 16.5653333 22.9851012 16.584 23.0465587 16.512 23.0438866 16.3386667 23.0438866 15.8426667 23.0438866 15.344 23.0438866 14.848 23.0438866 14.5573333 23.0438866 14.5546667 22.728583 14.552 22.19417 14.552 21.6597571 14.552 21.1253441 14.552 21.026371 14.5706038 20.9240187 14.5505565 20.8394332 14.496L22.8408097 11.1226667C22.7846964 11.088 22.7659919 11.0666667 22.7446154 11.0666667 21.942996 11.0666667 21.1173279 11.0666667 20.3023482 11.0666667 20.1514812 11.0600947 20.0161493 11.1586209 19.9763563 11.304 19.918107 11.4990453 19.7183279 11.6156391 19.5194332 11.5706667 19.3859504 11.5626595 19.2521063 11.5626595 19.1186235 11.5706667 18.4025101 11.5706667 17.6837247 11.5706667 16.9809717 11.5706667 16.7992713 11.5706667 16.7137652 11.5253333 16.7137652 11.3306667 16.7137652 11.136 16.7137652 10.9893333 16.7137652 10.8213333 16.7137652 10.6533333 16.6843725 10.616 16.5320648 10.616L14.0096356 10.616C13.8626721 10.616 13.819919 10.68 13.8225911 10.8133333 13.8225911 11.008 13.8225911 11.2026667 13.8225911 11.3946667 13.8225911 11.5173333 13.7798381 11.576 13.654251 11.568 13.528664 11.56 13.4832389 11.568 13.3870445 11.568L9.49919028 11.568C9.23198381 11.568 9.21595142 11.568 9.21327935 11.8346667 9.21327935 12.2453333 9.21327935 12.6586667 9.21327935 13.072 9.21327935 13.4853333 9.16518219 13.448 9.57668016 13.448L13.405749 13.448C13.4805668 13.448 13.5527126 13.448 13.6248583 13.448 13.7584615 13.448 13.8306073 13.48 13.8252632 13.6293333 13.8252632 13.8826667 13.8252632 14.1386667 13.8252632 14.392 13.8252632 14.5173333 13.7718219 14.568 13.6515789 14.5626667 13.531336 14.5573333 13.4805668 14.5626667 13.3843725 14.5626667L9.01821862 14.5626667C8.90064777 14.5626667 8.84186235 14.6106667 8.84186235 14.736 8.84186235 15.2924444 8.84186235 15.8497778 8.84186235 16.408 8.84186235 16.536 8.90064777 16.5813333 9.01821862 16.576 9.13578947 16.5706667 9.23732794 16.576 9.34688259 16.576L10.397004 16.576C10.3556591 16.6778459 10.2838007 16.7644605 10.1912551 16.824 9.80647773 17.1786667 9.4217004 17.5333333 9.02890688 17.8746667 8.89852074 17.9826107 8.82714125 18.1458583 8.83651822 18.3146667 8.83651822 19.176 8.83651822 20.0373333 8.83651822 20.8986667 8.83651822 20.9653333 8.80445344 21.0426667 8.90331984 21.12L10.8298785 19.3653333C10.8298785 20.08 10.8298785 20.6986667 10.8298785 21.3173333 10.8215792 21.710652 10.9757857 22.0900556 11.2562921 22.3664646 11.5367985 22.6428736 11.9188967 22.7919407 12.3128745 22.7786667 12.7724696 22.752 13.2347368 22.7786667 13.697004 22.7786667 16.4189474 22.7786667 19.1417814 22.7786667 21.8655061 22.7786667 22.0578996 22.800927 22.2450461 22.7064936 22.3411336 22.5386667 22.6537652 22.048 22.9904453 21.5733333 23.3137652 21.088 23.3672065 21.0186667 23.4660729 20.952 23.3939271 20.8213333zM16.8740891 13.4533333L18.6830769 13.4533333 18.0791903 14.4666667C18.0330231 14.5396814 17.9485277 14.5792412 17.862753 14.568 17.5340891 14.568 17.2054251 14.568 16.8794332 14.568 16.7538462 14.568 16.7030769 14.5173333 16.7030769 14.3946667 16.7030769 14.128 16.7030769 13.8853333 16.7030769 13.6293333 16.7030769 13.512 16.74583 13.4533333 16.8740891 13.4533333zM52.5007287 19.76C50.4966802 19.76 48.4926316 19.76 46.4859109 19.76 46.3763563 19.76 46.2507692 19.8106667 46.1492308 19.7146667 46.3190823 19.4417338 46.6308298 19.2903232 46.9508502 19.3253333 48.8212955 19.3413333 50.6917409 19.3253333 52.5621862 19.3253333 52.8855061 19.3253333 52.8881781 19.3253333 52.8881781 19.0133333 52.8881781 17.984 52.8881781 16.9528889 52.8881781 15.92 52.8881781 15.3866667 52.6209717 15.12 52.0865587 15.12L40.2867206 15.12C40.0706442 15.0904678 39.8531657 15.1635133 39.6989504 15.3174171 39.544735 15.4713209 39.4715417 15.68836 39.5011336 15.904 39.5011336 16.9466667 39.5011336 17.9893333 39.5011336 19.032 39.5011336 19.328 39.5011336 19.3333333 39.8030769 19.3333333L42.8652632 19.3333333C42.9507692 19.3333333 43.0576518 19.2853333 43.1137652 19.3866667 42.9336057 19.67035 42.6018476 19.8201777 42.2693927 19.768 41.3956275 19.7466667 40.5191903 19.768 39.6454251 19.768 39.3782186 19.768 39.3648583 19.768 39.3621862 20.0506667 39.3595142 20.3333333 39.3621862 20.536 39.3621862 20.7786667 39.3621862 21.0213333 39.3621862 21.032 39.6293927 21.0453333 40.0809717 21.0453333 40.5298785 21.0453333 40.9787854 21.0453333L41.4063158 21.0453333 39.6534413 22.72C39.7015385 22.808 39.7549798 22.7893333 39.7977328 22.7893333 40.7596761 22.7893333 41.7189474 22.7893333 42.6782186 22.7893333 42.8234184 22.7912939 42.9625094 22.7311106 43.0603239 22.624 43.5519838 22.152 44.0489879 21.688 44.5379757 21.216 44.6438304 21.0994144 44.7945037 21.0334461 44.9521457 21.0346667 46.6782996 21.0346667 48.4044534 21.0346667 50.1306073 21.0346667 50.3978138 21.0346667 50.4191903 21.056 50.3978138 21.32 50.3764372 21.584 50.3710931 21.6 50.1012146 21.6L47.1459109 21.6C46.8653441 21.6 46.8626721 21.6 46.86 21.8666667 46.86 22.0604444 46.86 22.2551111 46.86 22.4506667 46.86 22.7653333 46.86 22.768 47.1726316 22.7706667 48.7544939 22.7706667 50.3336842 22.7706667 51.9128745 22.7706667 52.5568421 22.7706667 52.8961943 22.424 52.8988664 21.7786667 52.8988664 21.2453333 52.8988664 20.688 52.8988664 20.1413333 52.9068826 19.7333333 52.9523077 19.76 52.5007287 19.76zM50.3630769 18.1973333C49.4581377 18.1973333 48.551417 18.1973333 47.642915 18.1973333 47.4745749 18.1973333 47.4024291 18.152 47.4104453 17.9733333 47.4184615 17.7946667 47.4238057 17.7413333 47.6776518 17.7386667 48.137247 17.7386667 48.5968421 17.7386667 49.0564372 17.7386667 49.5160324 17.7386667 49.9275304 17.7386667 50.3630769 17.7386667 50.5340891 17.7386667 50.5982186 17.7893333 50.5955466 17.9653333 50.5928745 18.1413333 50.5501215 18.1973333 50.3604049 18.1973333L50.3630769 18.1973333zM47.4238057 16.296C47.4585425 16.2053333 47.5333603 16.2186667 47.602834 16.2186667L48.2922267 16.2186667C48.9709312 16.2186667 49.6469636 16.2186667 50.325668 16.2186667 50.4172313 16.218925 50.502286 16.2659539 50.5510579 16.3432906 50.5998299 16.4206273 50.6055266 16.5175009 50.5661538 16.6 50.5234008 16.704 50.4272065 16.68 50.3497166 16.68L49.0136842 16.68C48.5674494 16.68 48.1185425 16.68 47.6776518 16.68 47.437166 16.6746667 47.3382996 16.5093333 47.4238057 16.296zM44.7357085 18.1973333C44.3001619 18.1973333 43.8619433 18.1973333 43.4237247 18.1973333 42.9855061 18.1973333 42.5018623 18.1973333 42.0395951 18.1973333 41.8552227 18.1973333 41.8204858 18.1226667 41.8178138 17.9573333 41.8151417 17.792 41.8819433 17.7306667 42.0529555 17.7306667 42.9436437 17.7306667 43.8423482 17.7306667 44.7490688 17.7306667 44.9387854 17.7306667 44.962834 17.8106667 44.9655061 17.9706667 44.9681781 18.1306667 44.9093927 18.2 44.7357085 18.1973333zM44.9548178 16.5973333C44.9120648 16.7066667 44.8158704 16.6773333 44.7357085 16.6773333L43.4237247 16.6773333C42.9748178 16.6773333 42.5259109 16.6773333 42.0876923 16.6773333 41.9948977 16.6784482 41.9081687 16.631434 41.8585929 16.553143 41.8090172 16.474852 41.8036951 16.376497 41.8445344 16.2933333 41.8819433 16.2053333 41.9594332 16.2186667 42.0289069 16.216L42.7530364 16.216C43.4076923 16.216 44.0650202 16.216 44.7196761 16.216 44.8102865 16.2180538 44.8936766 16.2658056 44.9411775 16.3428386 44.9886784 16.4198716 44.9938137 16.515683 44.9548178 16.5973333zM38.3361134 12.0853333C38.3361134 11.552 38.0689069 11.2853333 37.5344939 11.2853333 36.9252632 11.2853333 36.3187045 11.2853333 35.7121457 11.2853333 35.3380567 11.2853333 35.3380567 11.2853333 35.3273684 10.8933333 35.3273684 10.6266667 35.3273684 10.6266667 35.0361134 10.6266667L33.3607287 10.6266667C32.8904453 10.6266667 32.9438866 10.5813333 32.9385425 11.0213333 32.9385425 11.288 32.9385425 11.288 32.671336 11.288 32.0140081 11.288 31.3593522 11.288 30.7020243 11.288 30.4940592 11.2768197 30.2902011 11.3487936 30.1355466 11.488 29.965985 11.666267 29.8847053 11.9105906 29.9137652 12.1546667 29.9137652 13.6826667 29.9137652 15.2106667 29.9137652 16.736L29.9137652 18.4453333C29.9137652 19.416 29.9137652 20.3866667 29.9137652 21.3573333 29.9003389 21.7385008 30.0454297 22.1082456 30.3146542 22.3789463 30.5838787 22.6496471 30.9532747 22.7972103 31.3353036 22.7866667 32.1021862 22.7866667 32.8663968 22.7866667 33.6306073 22.7866667 33.9165182 22.7866667 33.9191903 22.7866667 33.9191903 22.4773333 33.9191903 22.04 33.9191903 21.6026667 33.9191903 21.168 33.9191903 20.8453333 33.9191903 20.8426667 33.6038866 20.84 33.2271255 20.84 32.8503644 20.84 32.4736032 20.84 32.2063968 20.84 32.1048583 20.7386667 32.1021862 20.496 32.1021862 19.744 32.1021862 18.992 32.1021862 18.24 32.1021862 18.0986667 32.1582996 18.0453333 32.297247 18.056 32.380081 18.056 32.465587 18.056 32.5644534 18.056L38.031498 18.056C38.3414575 18.056 38.3468016 18.056 38.3468016 17.776 38.3414575 15.8808889 38.3378947 13.984 38.3361134 12.0853333zM35.6266397 16.2426667L32.3854251 16.2426667C32.1182186 16.2426667 32.1182186 16.2426667 32.1182186 15.96 32.1182186 15.088 32.1182186 14.2133333 32.1182186 13.3413333 32.1182186 13.0746667 32.1182186 13.0746667 32.3854251 13.0746667L35.8831579 13.0746667C36.1690688 13.0746667 36.177085 13.0746667 36.174413 13.3413333 36.174413 13.9626667 36.2331984 13.856 35.64 13.8746667 34.8517409 13.8746667 34.0608097 13.8746667 33.2725506 13.8746667 32.9893117 13.8746667 32.9866397 13.8746667 32.9839676 14.1413333 32.9839676 14.5066667 32.9839676 14.8693333 32.9839676 15.232 32.9839676 15.424 33.0480972 15.4826667 33.2378138 15.48 34.0634818 15.48 34.8891498 15.48 35.7148178 15.48 35.8003239 15.48 35.88583 15.48 35.968664 15.48 36.1049393 15.48 36.1583806 15.5226667 36.1690688 15.6666667 36.2038057 16.2426667 36.2091498 16.2426667 35.6266397 16.2426667z"/>
    <path fill="#FFF" d="M121.865227,19.281734 C122.344781,18.7787812 122.609558,18.1143302 122.604976,17.4253484 C122.55018,15.6658177 122.604976,13.906287 122.604976,12.1413754 C122.604976,11.5279611 122.604976,11.5225802 123.202255,11.5171994 C124.298179,11.5171994 125.394104,11.5171994 126.490028,11.5171994 C127.037991,11.5171994 127.037991,11.5171994 127.037991,12.0229972 C127.037991,14.4013231 127.037991,16.7760618 127.037991,19.1472133 C127.033719,19.5647995 126.902015,19.9715319 126.659897,20.3148529 C126.111934,21.1112154 125.563972,21.9291013 125.081765,22.720083 C124.637916,23.4249714 124.599558,23.1666917 125.125602,23.9038651 C126.068097,25.2275487 127.021552,26.5404707 127.969526,27.8587735 L128.369539,28.4345221 C128.216109,28.6228511 128.0572,28.5582812 127.92021,28.5582812 C126.627019,28.5582812 125.328348,28.5582812 124.035157,28.5582812 C123.710901,28.5886663 123.396976,28.4366166 123.224173,28.1654807 C122.955672,27.7834419 122.676211,27.4229265 122.341954,27.0086027 C122.004661,27.3756321 121.712253,27.7801501 121.470694,28.2139082 C121.339183,28.3968563 121.218631,28.5582812 120.922732,28.5529003 C119.306243,28.5529003 117.689754,28.5529003 116.062306,28.5529003 C116.086503,28.2999952 116.201024,28.0636472 116.385604,27.8856777 C117.240425,26.5350899 118.106205,25.1952638 118.971986,23.8500568 C119.393917,23.188215 119.393917,23.188215 118.900751,22.5371348 C118.352788,21.7945806 117.804826,21.0358838 117.180149,20.3202337 C116.75266,19.8056802 116.534066,19.1540564 116.566431,18.4907523 C116.566431,15.9940482 116.566431,13.5027249 116.566431,11.0060208 C116.566431,10.8338343 116.566431,10.6616478 116.566431,10.467938 C116.566431,10.2742282 116.462319,10.1020417 116.210256,10.1128033 C116.062306,10.1128033 115.914356,10.1128033 115.760927,10.1128033 C115.514344,10.1128033 115.399272,10.0159484 115.399272,9.76843037 C115.399272,8.64383735 115.399272,7.51386351 115.399272,6.38927049 C115.399272,6.12560993 115.541742,6.05565917 115.771886,6.06642082 C116.00203,6.07718248 116.073265,6.06642082 116.221215,6.06642082 C116.484237,6.06642082 116.566431,5.94266178 116.560952,5.70590536 C116.560952,5.26467748 116.560952,4.82344959 116.560952,4.38222171 C116.560952,4.10779949 116.654105,3.99480211 116.955485,4.00018294 C118.171961,4.00018294 119.39209,4.00018294 120.615873,4.00018294 C120.94465,4.00018294 121.054242,4.1293228 121.043283,4.43602999 C121.032324,4.74273718 121.043283,5.21625002 121.043283,5.60905046 C121.043283,6.00185089 121.125478,6.09870579 121.503572,6.07718248 C122.051534,6.07718248 122.599496,6.07718248 123.147458,6.07718248 C124.243383,6.07718248 125.388624,6.07718248 126.511947,6.07718248 C126.89552,6.07718248 127.059909,6.19017986 127.059909,6.57759947 C127.059909,7.5515293 127.059909,8.53083997 127.059909,9.51015063 C127.059909,10.1181842 127.059909,10.1289458 126.440712,10.1289458 L121.344663,10.1289458 C121.268875,10.1193617 121.192947,10.1456235 121.140006,10.199732 C121.087065,10.2538406 121.063378,10.3293897 121.076161,10.4033681 C121.076161,10.5701737 121.076161,10.7423602 121.076161,10.9414508 C121.076161,13.093782 121.076161,15.2461131 121.076161,17.3984442 C121.041452,18.1101022 121.330554,18.8001124 121.865227,19.281734 Z M160.97606,12.6206897 L147.935936,12.6206897 C147.392597,12.6206897 147.392597,12.6206897 147.392597,12.0427069 C147.392597,10.2051581 147.392597,8.37306185 147.392597,6.53551298 C147.392597,5.33592618 147.935936,4.77430145 149.180181,4.76884878 C150.907997,4.76884878 152.635814,4.76884878 154.369064,4.76884878 C154.825468,4.76884878 155.352507,4.88335479 155.385107,4.15269738 C155.385107,3.99457003 155.553542,4.0000227 155.673076,4.0000227 L159.824183,4.0000227 C160.090419,4.0000227 160.161053,4.14179204 160.161053,4.37080407 C160.161053,4.84518612 160.161053,5.31411551 160.161053,5.78849756 C160.190156,6.11780575 160.068831,6.44258473 159.831183,6.67153632 C159.593535,6.90048792 159.265224,7.00889143 158.938541,6.96627369 C157.47696,6.96627369 156.020813,6.96627369 154.564666,6.96627369 C153.896359,6.96627369 153.228053,6.96627369 152.559747,6.96627369 C152.173976,6.96627369 152.119642,7.12985371 152.114209,7.45701375 C152.108776,7.78417378 152.250044,7.87141646 152.554313,7.87141646 L159.519913,7.87141646 C160.155619,7.87141646 160.166486,7.87141646 160.161053,8.52028387 C160.161053,9.85073468 160.318621,9.61081732 159.074376,9.61081732 C156.901021,9.61081732 154.771134,9.61081732 152.624947,9.61081732 C152.119642,9.61081732 152.081609,9.65443866 152.081609,10.0851994 C152.081609,10.3741907 152.19571,10.4941494 152.478246,10.4777914 C152.630381,10.4777914 152.777082,10.4777914 152.923783,10.4777914 L169.30544,10.4777914 C169.604276,10.4777914 169.919413,10.5323181 169.886812,10.0524834 C169.854212,9.57264865 169.886812,9.61626999 169.343474,9.61626999 L163.182015,9.61626999 C162.095338,9.61626999 162.209439,9.75803934 162.198572,8.62388454 L162.198572,8.47666253 C162.198572,7.86051113 162.198572,7.85505846 162.796245,7.85505846 L169.316307,7.85505846 C169.859645,7.85505846 169.968313,7.73509978 169.886812,7.21709639 C169.886065,7.1429186 169.853325,7.07270518 169.797055,7.02460091 C169.740784,6.97649664 169.666504,6.95522158 169.59341,6.96627369 L162.774511,6.96627369 C162.231172,6.96627369 162.231172,6.96627369 162.198572,6.39374363 C162.198572,5.99569892 162.198572,5.59765421 162.198572,5.20506216 C162.198572,4.81247012 162.334407,4.76884878 162.64411,4.77430145 L172.576338,4.77430145 C172.873127,4.75785663 173.170791,4.77984827 173.46198,4.83973346 C174.124558,4.95415847 174.613939,5.52294091 174.630158,6.19744761 C174.630158,8.20402916 174.630158,10.2106107 174.630158,12.1953816 C174.630158,12.468015 174.559524,12.615237 174.260688,12.598879 C174.086819,12.598879 173.912951,12.598879 173.717349,12.598879 L160.97606,12.6206897 Z M142.295598,24.2310051 L145.663228,28.8512355 C145.526555,29.0656314 145.335212,28.9852329 145.182138,28.9852329 C143.84274,28.9852329 142.497874,28.9852329 141.158476,28.9852329 C140.837999,29.0151488 140.528179,28.8632714 140.360304,28.5939605 C138.774893,26.3910432 137.167615,24.1934858 135.565804,21.9959285 C135.473971,21.8824285 135.396845,21.7582033 135.336193,21.6260956 C135.267978,21.4792657 135.270856,21.3101207 135.344028,21.1656032 C135.4172,21.0210857 135.552879,20.9165729 135.713411,20.8810701 C135.928016,20.8200086 136.152253,20.7982056 136.37491,20.8167513 L144.793986,20.8167513 C144.941593,20.8167513 145.0892,20.8167513 145.236807,20.8167513 C145.312397,20.8112427 145.386489,20.8394551 145.438472,20.8935404 C145.490455,20.9476257 145.514782,21.0218134 145.504687,21.0954659 C145.504687,22.0423809 145.504687,22.9910825 145.504687,23.9415707 C145.504687,24.2202853 145.269609,24.2095655 145.072799,24.2095655 L142.295598,24.2095655 L142.295598,24.2310051 Z M115.348029,24.6096292 C115.493427,24.87351 115.294178,25.0081431 115.186476,25.1481615 C114.534879,26.1282902 113.856356,27.0868776 113.226299,28.0777769 C113.032651,28.4167026 112.655489,28.6074106 112.267752,28.5624559 C106.778539,28.5624559 101.291122,28.5624559 95.8055004,28.5624559 C94.8738781,28.5624559 93.9422557,28.5086027 93.0160185,28.5624559 C92.2220221,28.5892627 91.451967,28.2882223 90.8866531,27.7300155 C90.3213393,27.1718087 90.0105619,26.4056047 90.0272879,25.6112992 C90.0272879,24.3619044 90.0272879,23.1125096 90.0272879,21.6692431 L86.1446307,25.2127853 C85.945382,25.056611 86.0100032,24.9004366 86.0100032,24.7658036 C86.0100032,23.0263444 86.0100032,21.2868852 86.0100032,19.5474261 C85.9911055,19.2065182 86.1349589,18.8768405 86.3977304,18.6588478 C87.1893401,17.9695266 87.9647945,17.2532787 88.740249,16.5370308 C88.9267593,16.416791 89.0715779,16.2418731 89.1549017,16.0361958 L87.0385573,16.0361958 C86.8177682,16.0361958 86.6131344,16.0254251 86.37619,16.0361958 C86.1392456,16.0469664 86.0207734,15.955416 86.0207734,15.6969205 C86.0207734,14.569593 86.0207734,13.4440606 86.0207734,12.3203233 C86.0207734,12.0672131 86.1392456,11.9702773 86.37619,11.9702773 L95.1754437,11.9702773 C95.3693073,11.9702773 95.4716242,11.9595067 95.7139537,11.9702773 C95.9562832,11.9810479 96.0639852,11.8787268 96.0639852,11.6256167 C96.0639852,11.114011 96.0639852,10.5970201 96.0639852,10.0854144 C96.0747554,9.78383637 95.9293577,9.7192125 95.6601027,9.7192125 C95.514705,9.7192125 95.3693073,9.7192125 95.2185245,9.7192125 L87.5016759,9.7192125 C86.6723705,9.7192125 86.7693023,9.79460701 86.7693023,8.95988202 C86.7693023,8.12515704 86.7693023,7.29043205 86.7693023,6.46109238 C86.7746874,5.92256013 86.806998,5.92256013 87.345508,5.92256013 L95.1808288,5.92256013 C95.3746924,5.92256013 95.4662391,5.90640417 95.7193388,5.92256013 C95.9724385,5.9387161 96.0586001,5.82023901 96.0586001,5.57251417 C96.0586001,5.18477095 96.0586001,4.79164241 96.0586001,4.39851387 C96.053215,4.12924774 96.1393766,4 96.4355571,4 L101.519092,4 C101.826042,4 101.885278,4.07539452 101.885278,4.41466983 C101.885278,4.75394515 101.885278,5.05013789 101.885278,5.44326643 C101.885278,5.83639497 102.057602,5.92794546 102.423788,5.92794546 C103.84007,5.92794546 105.288662,5.92794546 106.731869,5.92794546 C107.000881,5.91177492 107.270621,5.91177492 107.539634,5.92794546 C107.940473,6.0187672 108.343094,5.78330643 108.460486,5.38941321 C108.540682,5.09582073 108.813421,4.89684737 109.117468,4.9101195 C110.759924,4.9101195 112.423919,4.9101195 114.03945,4.9101195 C114.08253,4.9101195 114.120226,4.95320208 114.233313,5.02321128 L110.199873,11.8356442 C110.370341,11.9458209 110.576615,11.9863062 110.776079,11.948736 C111.853099,11.948736 112.930119,11.948736 114.007139,11.948736 C114.642581,11.9541213 114.642581,11.9595067 114.642581,12.5465068 C114.642581,13.5481768 114.642581,14.5552321 114.642581,15.5569021 C114.647966,15.906948 114.524109,16.0523518 114.174077,16.0146545 C113.980213,16.0146545 113.80789,16.0146545 113.635567,16.0146545 L96.807129,16.0146545 C96.4453321,15.9620554 96.0787807,16.0719924 95.8056424,16.3150228 C95.5325041,16.5580533 95.3806862,16.909346 95.3908477,17.27482 C95.4016179,18.4972882 95.3854626,18.4972882 96.5701846,18.4972882 L113.032436,18.4972882 C113.947903,18.4972882 113.840201,18.4003524 113.840201,19.3320132 C113.840201,19.9674812 113.840201,20.6029493 113.840201,21.2438026 C113.834816,22.1862341 113.953288,22.0892983 112.96243,22.0892983 L96.2093829,22.0892983 C95.3962328,22.0892983 95.3962328,22.0085184 95.3962328,22.87017 C95.3962328,23.0909683 95.3962328,23.3117665 95.3962328,23.5325647 C95.407003,24.4588402 95.5416305,24.6096292 96.4140167,24.6096292 L115.348029,24.6096292 Z M102.208384,9.72998314 C101.9499,9.72998314 101.863738,9.84846024 101.863738,10.0854144 C101.863738,10.6024054 101.863738,11.0924697 101.863738,11.631002 C101.863738,11.8787268 101.966055,11.9810479 102.219155,11.9810479 C102.876137,11.9810479 103.538504,11.9810479 104.200872,11.9810479 C104.373736,12.0037494 104.544022,11.9238587 104.637065,11.7764057 L105.854097,9.72998314 L102.208384,9.72998314 Z M174.251607,22.873916 C175.159824,22.873916 175.068465,22.8200187 175.052342,23.6446478 C175.052342,24.749543 175.052342,25.8759972 175.052342,26.9539437 C175.046968,28.2582591 174.364462,28.9589243 173.069312,28.9589243 C169.89324,28.9589243 166.717167,28.9589243 163.535721,28.9589243 C162.906955,28.9535346 162.906955,28.9481449 162.906955,28.3121564 C162.906955,27.9169093 162.906955,27.5234588 162.906955,27.1318049 C162.912329,26.5928316 162.917703,26.5928316 163.48198,26.5928316 L169.425696,26.5928316 C169.968477,26.5928316 169.979225,26.5604932 170.022217,26.0269097 C170.06521,25.4933262 170.022217,25.4502083 169.484811,25.4502083 C166.013165,25.4502083 162.541519,25.4502083 159.069872,25.4502083 C158.752822,25.4477413 158.449787,25.5810732 158.236892,25.8167101 C157.253438,26.7706928 156.253862,27.7085063 155.265034,28.662489 C155.068309,28.8789755 154.788569,29.0006151 154.496543,28.9966525 C152.567253,28.9966525 150.637964,28.9966525 148.7033,28.9966525 C148.617315,28.9966525 148.509834,29.0343806 148.413101,28.8565194 L151.938488,25.4717672 L151.078637,25.4717672 C150.175794,25.4717672 149.272951,25.4717672 148.364734,25.4717672 C147.827328,25.4448186 147.827328,25.4232596 147.827328,24.9327939 C147.827328,24.4423283 147.821954,24.0327086 147.827328,23.4613969 C147.832702,22.8900852 147.859572,22.8900852 148.396979,22.8900852 C150.154298,22.8900852 151.916991,22.8469674 153.674311,22.8900852 C154.342945,22.9955443 155.010178,22.69272 155.372515,22.1193534 C155.25966,21.9145436 155.044697,22.0115588 154.872727,22.0115588 L148.714049,22.0115588 C148.106779,22.0115588 148.106779,22.0007793 148.106779,21.402519 C148.106779,19.2951335 148.106779,17.187748 148.106779,15.0803624 C148.047264,14.6445218 148.194471,14.2058532 148.504629,13.8947906 C148.814787,13.583728 149.252181,13.4360921 149.686754,13.495781 L173.418627,13.495781 C174.49344,13.495781 175.030846,14.0347543 175.030846,15.1127008 C175.030846,17.200324 175.030846,19.284354 175.030846,21.3647909 C175.030846,21.9953896 175.025472,21.9953896 174.37521,21.9953896 C170.613365,21.9953896 166.851519,22.027728 163.089673,21.9953896 C162.446047,21.9246289 161.81906,22.2306524 161.477454,22.7822906 C161.681668,22.976321 161.934249,22.873916 162.154586,22.873916 C166.190509,22.873916 170.221058,22.873916 174.251607,22.873916 Z M169.952355,19.7155326 L169.94698,19.7155326 C170.328539,19.7155326 170.414524,19.6023482 170.419898,19.2466259 C170.425272,18.8909035 170.296295,18.7884986 169.952355,18.7884986 C169.076382,18.7884986 168.248776,18.7884986 167.324437,18.7884986 C166.400097,18.7884986 165.475758,18.7884986 164.551419,18.7884986 C164.040883,18.7938883 164.030135,18.901683 164.014012,19.2627951 C163.99789,19.6239072 164.14299,19.7155326 164.481556,19.7155326 C166.308738,19.7155326 168.132338,19.7155326 169.952355,19.7155326 Z M164.040883,15.8726532 C163.868913,16.3038318 164.067753,16.6379952 164.551419,16.6487747 C165.43814,16.6487747 166.340983,16.6487747 167.238452,16.6487747 L169.925484,16.6487747 C170.081332,16.6487747 170.274798,16.6972823 170.360784,16.4870827 C170.43997,16.3203396 170.428513,16.1245435 170.330423,15.9682345 C170.232332,15.8119256 170.06127,15.716873 169.877118,15.7163509 C168.512105,15.7163509 167.152467,15.7163509 165.787454,15.7163509 L164.400945,15.7163509 C164.261219,15.7163509 164.110746,15.6894022 164.040883,15.8726532 Z M158.634573,19.7155326 C158.983887,19.7209224 159.102117,19.5807893 159.096743,19.2574053 C159.091369,18.9340214 159.043002,18.7723294 158.661443,18.7723294 C156.837844,18.7723294 155.030367,18.7723294 153.239012,18.7723294 C152.895071,18.7723294 152.76072,18.8962932 152.766094,19.2304567 C152.771468,19.5646201 152.841331,19.7155326 153.212141,19.7155326 C154.141854,19.7155326 155.11456,19.7155326 155.995907,19.7155326 C156.877254,19.7155326 157.7586,19.7155326 158.634573,19.7155326 Z M159.075246,16.481693 C159.153675,16.3166655 159.143347,16.1230162 159.047813,15.967321 C158.952279,15.8116257 158.784564,15.7151122 158.602329,15.7109612 C157.285683,15.7109612 155.963663,15.7109612 154.647017,15.7109612 L153.190645,15.7109612 C153.050919,15.7163509 152.895071,15.6894022 152.819834,15.8672634 C152.737698,16.0353498 152.748402,16.2341398 152.848109,16.3923777 C152.947816,16.5506156 153.122246,16.6456382 153.308874,16.6433849 C154.190221,16.6433849 155.093064,16.6433849 155.995907,16.6433849 L158.634573,16.6433849 C158.795795,16.6433849 158.989261,16.702672 159.075246,16.481693 Z M145.641872,6.94942284 C145.645432,10.7850456 145.65255,14.6170769 145.663228,18.4455168 C145.663228,19.0111634 145.65255,19.0111634 145.03323,19.0111634 L134.109707,19.0111634 C133.912165,19.0111634 133.741318,19.0111634 133.57581,19.0111634 C133.298184,18.989615 133.186066,19.0973572 133.186066,19.382874 C133.186066,20.9020392 133.186066,22.4212044 133.186066,23.9403696 C133.191405,24.4305966 133.394285,24.6353069 133.928182,24.6353069 C134.680976,24.6353069 135.43377,24.6353069 136.186564,24.6353069 C136.816562,24.640694 136.816562,24.6460811 136.816562,25.2979215 C136.816562,26.1760205 136.816562,27.0595066 136.816562,27.9429927 C136.816562,28.5678976 136.811223,28.5678976 136.239954,28.5678976 C134.71301,28.5678976 133.186066,28.5678976 131.653782,28.5678976 C130.890463,28.5891974 130.152385,28.2910953 129.614456,27.7442347 C129.076527,27.1973741 128.786626,26.450428 128.813453,25.6804063 C128.813453,23.7194981 128.813453,21.7585898 128.813453,19.7976816 L128.813453,16.3445437 C128.813453,13.2631164 128.813453,10.1763021 128.813453,7.08948771 C128.755389,6.59641334 128.917791,6.1028391 129.256587,5.74271007 C129.565597,5.46148994 129.972919,5.31609061 130.388448,5.33867678 C131.701833,5.33867678 133.00988,5.33867678 134.323265,5.33867678 C134.857162,5.33867678 134.857162,5.33867678 134.857162,4.79996572 C134.86784,3.91109247 134.76106,4.00267335 135.700718,4.00267335 L139.04825,4.00267335 C139.630197,4.00267335 139.630197,4.00267335 139.630197,4.54138441 C139.651553,5.33328967 139.651553,5.33328967 140.399008,5.33328967 C141.610953,5.33328967 142.822898,5.33328967 144.040183,5.33328967 C145.107976,5.33328967 145.641872,5.87200072 145.641872,6.94942284 Z M140.228161,15.3479282 C141.392056,15.3479282 141.381378,15.3479282 141.311971,14.1843123 C141.290615,13.8934084 141.183836,13.8072146 140.911549,13.8072146 C140.746041,13.8072146 140.575194,13.8072146 140.404347,13.8072146 C138.754607,13.8072146 137.104866,13.8072146 135.455126,13.8072146 C135.076059,13.8126017 134.947924,13.6940853 134.947924,13.3062133 C134.947924,12.5735663 134.947924,11.8409192 134.947924,11.1028851 C134.953263,10.564174 134.958602,10.564174 135.524533,10.564174 C137.099527,10.564174 138.679861,10.564174 140.254856,10.564174 C141.440106,10.5264643 141.322649,10.7419487 141.322649,9.48675192 C141.327988,8.94804086 141.311971,8.94804086 140.740702,8.94804086 L133.751996,8.94804086 C133.218099,8.94804086 133.218099,8.94804086 133.218099,9.48675192 C133.218099,11.2483371 133.218099,13.0153093 133.218099,14.7768945 C133.218099,15.3479282 133.218099,15.3479282 133.751996,15.3479282 L140.228161,15.3479282 Z"/>
  </g>
</svg>
