<svg xmlns="http://www.w3.org/2000/svg" width="247" height="119" viewBox="0 0 247 119">
  <g fill="none" fill-rule="evenodd" transform="translate(0 -1)">
    <path fill="#FFFFFF" d="M117,1 C121.86,0.86 127.23,1.12 132.59,1.34 C139.22,1.61 145.85,1.97 152.45,2.67 C164.470956,3.7881253 176.368145,5.97680647 188,9.21 C190.756178,9.97852837 193.434493,11.0029837 196,12.27 C197.935982,13.1926353 199.564497,14.6544791 200.69,16.48 C203.04,20.37 205.5,24.2 208.15,27.9 C212.441576,34.0391474 218.030094,39.1599638 224.52,42.9 C229.835479,45.8339402 234.710229,49.5034688 239,53.8 C240.760194,55.5805581 242.31954,57.5490223 243.65,59.67 C247.252138,65.2883704 247.92596,72.2983445 245.46,78.5 C243.74651,82.9176208 241.306173,87.017521 238.24,90.63 C235.081592,94.2878805 231.341375,97.3996599 227.17,99.84 C220.136173,104.109397 212.5893,107.469537 204.71,109.84 C196.351898,112.475708 187.817072,114.514175 179.17,115.94 C173.483333,116.92 167.766667,117.706667 162.02,118.3 C156.513333,118.866667 150.986667,119.28 145.44,119.54 C138.16,119.89 130.89,120.12 123.62,119.89 C119.43,119.76 115.25,119.65 111.08,119.39 C105.36,119.036667 99.6566667,118.533333 93.97,117.88 C84.0823003,116.769468 74.2779732,115.012372 64.62,112.62 C53.5498999,109.988942 42.833912,106.044303 32.7,100.87 C24.8413738,96.9133051 17.715728,91.6443178 11.63,85.29 C7.363832,80.8518079 4.08233057,75.5632407 2,69.77 C-1.33,60.22 -0.42,51 4.21,42.07 C7.83685319,35.4165744 12.8497964,29.6192932 18.91,25.07 C27.356275,18.5806802 36.8590383,13.597565 47,10.34 C55.2118384,7.64579346 63.6250621,5.6093653 72.16,4.25 C78.62,3.19 85.16,2.44 91.64,1.91 C95.26,1.61 98.9,1.49 102.53,1.29 C107.16,1 111.8,1 117,1 Z"/>
    <path fill="#211714" d="M100 68.16C100.87516 67.2252873 101.358362 65.9904384 101.35 64.71 101.25 61.44 101.35 58.17 101.35 54.89 101.35 53.75 101.35 53.74 102.44 53.73 104.44 53.73 106.44 53.73 108.44 53.73 109.44 53.73 109.44 53.73 109.44 54.67 109.44 59.09 109.44 63.5033333 109.44 67.91 109.432205 68.6860631 109.191852 69.4419551 108.75 70.08 107.75 71.56 106.75 73.08 105.87 74.55 105.06 75.86 104.99 75.38 105.95 76.75 107.67 79.21 109.41 81.65 111.14 84.1L111.87 85.17C111.59 85.52 111.3 85.4 111.05 85.4 108.69 85.4 106.32 85.4 103.96 85.4 103.36825 85.4564693 102.795355 85.1738925 102.48 84.67 101.99 83.96 101.48 83.29 100.87 82.52 100.254459 83.2021057 99.720832 83.9538823 99.28 84.76 99.04 85.1 98.82 85.4 98.28 85.39 95.33 85.39 92.38 85.39 89.41 85.39 89.454158 84.9199885 89.6631516 84.4807476 90 84.15 91.56 81.64 93.14 79.15 94.72 76.65 95.49 75.42 95.49 75.42 94.59 74.21 93.59 72.83 92.59 71.42 91.45 70.09 90.6698558 69.133728 90.2709347 67.9227175 90.33 66.69 90.33 62.05 90.33 57.42 90.33 52.78 90.33 52.46 90.33 52.14 90.33 51.78 90.33 51.42 90.14 51.1 89.68 51.12 89.41 51.12 89.14 51.12 88.86 51.12 88.41 51.12 88.2 50.94 88.2 50.48 88.2 48.39 88.2 46.29 88.2 44.2 88.2 43.71 88.46 43.58 88.88 43.6 89.3 43.62 89.43 43.6 89.7 43.6 90.18 43.6 90.33 43.37 90.32 42.93 90.32 42.11 90.32 41.29 90.32 40.47 90.32 39.96 90.49 39.75 91.04 39.76 93.26 39.76 95.4866667 39.76 97.72 39.76 98.32 39.76 98.52 40 98.5 40.57 98.48 41.14 98.5 42.02 98.5 42.75 98.5 43.48 98.65 43.66 99.34 43.62 100.34 43.62 101.34 43.62 102.34 43.62 104.34 43.62 106.43 43.62 108.48 43.62 109.18 43.62 109.48 43.83 109.48 44.55 109.48 46.36 109.48 48.18 109.48 50 109.48 51.13 109.48 51.15 108.35 51.15L99.05 51.15C98.9116921 51.1321884 98.7731286 51.1809945 98.676514 51.2815526 98.5798993 51.3821107 98.5366726 51.5225149 98.56 51.66 98.56 51.97 98.56 52.29 98.56 52.66 98.56 56.66 98.56 60.66 98.56 64.66 98.4966577 65.9825808 99.0242529 67.2649303 100 68.16zM172.87 55.09L148.87 55.09C147.87 55.09 147.87 55.09 147.87 54.03 147.87 50.66 147.87 47.3 147.87 43.93 147.87 41.73 148.87 40.7 151.16 40.69 154.34 40.69 157.52 40.69 160.71 40.69 161.55 40.69 162.52 40.9 162.58 39.56 162.58 39.27 162.89 39.28 163.11 39.28L170.75 39.28C171.24 39.28 171.37 39.54 171.37 39.96 171.37 40.83 171.37 41.69 171.37 42.56 171.423564 43.1639396 171.200268 43.7595729 170.762884 44.179462 170.325499 44.5993512 169.721251 44.7981594 169.12 44.72 166.43 44.72 163.75 44.72 161.07 44.72 159.84 44.72 158.61 44.72 157.38 44.72 156.67 44.72 156.57 45.02 156.56 45.62 156.55 46.22 156.81 46.38 157.37 46.38L170.19 46.38C171.36 46.38 171.38 46.38 171.37 47.57 171.37 50.01 171.66 49.57 169.37 49.57 165.37 49.57 161.45 49.57 157.5 49.57 156.57 49.57 156.5 49.65 156.5 50.44 156.5 50.97 156.71 51.19 157.23 51.16 157.51 51.16 157.78 51.16 158.05 51.16L188.2 51.16C188.75 51.16 189.33 51.26 189.27 50.38 189.21 49.5 189.27 49.58 188.27 49.58L176.93 49.58C174.93 49.58 175.14 49.84 175.12 47.76L175.12 47.49C175.12 46.36 175.12 46.35 176.22 46.35L188.22 46.35C189.22 46.35 189.42 46.13 189.27 45.18 189.268624 45.0439605 189.208368 44.9151916 189.104803 44.8269701 189.001239 44.7387485 188.864528 44.6997308 188.73 44.72L176.18 44.72C175.18 44.72 175.18 44.72 175.12 43.67 175.12 42.94 175.12 42.21 175.12 41.49 175.12 40.77 175.37 40.69 175.94 40.7L194.22 40.7C194.766232 40.6698408 195.314074 40.7101727 195.85 40.82 197.069457 41.0298514 197.970149 42.0729784 198 43.31 198 46.99 198 50.67 198 54.31 198 54.81 197.87 55.08 197.32 55.05 197 55.05 196.68 55.05 196.32 55.05L172.87 55.09zM137.59 76.54L143.75 85.16C143.5 85.56 143.15 85.41 142.87 85.41 140.42 85.41 137.96 85.41 135.51 85.41 134.923791 85.4658142 134.357074 85.1824554 134.05 84.68 131.15 80.57 128.21 76.47 125.28 72.37 125.112021 72.1582422 124.970945 71.9264743 124.86 71.68 124.735224 71.4060582 124.740489 71.0904831 124.874332 70.8208556 125.008176 70.5512282 125.256358 70.3562379 125.55 70.29 125.94255 70.1760772 126.35272 70.1353992 126.76 70.17L142.16 70.17C142.43 70.17 142.7 70.17 142.97 70.17 143.108268 70.1597224 143.243795 70.2123586 143.338881 70.3132659 143.433967 70.4141733 143.478466 70.552586 143.46 70.69 143.46 72.4566667 143.46 74.2266667 143.46 76 143.46 76.52 143.03 76.5 142.67 76.5L137.59 76.5 137.59 76.54z"/>
    <path fill="#211714" fill-rule="nonzero" d="M87.55 78.08L52.39 78.08C50.77 78.08 50.52 77.8 50.5 76.08 50.5 75.67 50.5 75.26 50.5 74.85 50.5 73.25 50.5 73.4 52.01 73.4L83.12 73.4C84.96 73.4 84.74 73.58 84.75 71.83 84.75 70.64 84.75 69.46 84.75 68.28 84.75 66.55 84.95 66.73 83.25 66.73L52.68 66.73C50.48 66.73 50.51 66.73 50.49 64.46 50.4711304 63.7813517 50.7530525 63.1290367 51.2602637 62.6777537 51.767475 62.2264707 52.4481519 62.0223288 53.12 62.12L84.37 62.12C84.69 62.12 85.01 62.12 85.37 62.12 86.02 62.19 86.25 61.92 86.24 61.27 86.24 59.41 86.24 57.54 86.24 55.68 86.24 54.59 86.24 54.58 85.06 54.57 83.06 54.57 81.06 54.57 79.06 54.57 78.6896006 54.6397641 78.3065548 54.5645869 77.99 54.36L85.48 41.71C85.27 41.58 85.2 41.5 85.12 41.5 82.12 41.5 79.03 41.5 75.98 41.5 75.4153917 41.475355 74.9089225 41.8448284 74.76 42.39 74.5420064 43.1214199 73.7943484 43.5586468 73.05 43.39 72.5504508 43.359973 72.0495492 43.359973 71.55 43.39 68.87 43.39 66.18 43.39 63.55 43.39 62.87 43.39 62.55 43.22 62.55 42.49 62.55 41.76 62.55 41.21 62.55 40.58 62.55 39.95 62.44 39.81 61.87 39.81L52.43 39.81C51.88 39.81 51.72 40.05 51.73 40.55 51.73 41.28 51.73 42.01 51.73 42.73 51.73 43.19 51.57 43.41 51.1 43.38 50.63 43.35 50.46 43.38 50.1 43.38L35.55 43.38C34.55 43.38 34.49 43.38 34.48 44.38 34.48 45.92 34.48 47.47 34.48 49.02 34.48 50.57 34.3 50.43 35.84 50.43L50.17 50.43C50.45 50.43 50.72 50.43 50.99 50.43 51.49 50.43 51.76 50.55 51.74 51.11 51.74 52.06 51.74 53.02 51.74 53.97 51.74 54.44 51.54 54.63 51.09 54.61 50.64 54.59 50.45 54.61 50.09 54.61L33.75 54.61C33.31 54.61 33.09 54.79 33.09 55.26 33.09 57.3466667 33.09 59.4366667 33.09 61.53 33.09 62.01 33.31 62.18 33.75 62.16 34.19 62.14 34.57 62.16 34.98 62.16L38.91 62.16C38.7552697 62.541922 38.4863452 62.8667269 38.14 63.09 36.7 64.42 35.26 65.75 33.79 67.03 33.3020397 67.4347903 33.0349074 68.0469685 33.07 68.68 33.07 71.91 33.07 75.14 33.07 78.37 33.07 78.62 32.95 78.91 33.32 79.2L40.53 72.62C40.53 75.3 40.53 77.62 40.53 79.94 40.4989403 81.414945 41.0760463 82.8377085 42.1258203 83.8742422 43.1755944 84.9107758 44.605568 85.4697775 46.08 85.42 47.8 85.32 49.53 85.42 51.26 85.42 61.4466667 85.42 71.6366667 85.42 81.83 85.42 82.5500183 85.5034764 83.2503999 85.1493508 83.61 84.52 84.78 82.68 86.04 80.9 87.25 79.08 87.45 78.82 87.82 78.57 87.55 78.08zM63.15 50.45L69.92 50.45 67.66 54.25C67.4872229 54.5238053 67.1710051 54.6721544 66.85 54.63 65.62 54.63 64.39 54.63 63.17 54.63 62.7 54.63 62.51 54.44 62.51 53.98 62.51 52.98 62.51 52.07 62.51 51.11 62.51 50.67 62.67 50.45 63.15 50.45zM196.48 74.1C188.98 74.1 181.48 74.1 173.97 74.1 173.56 74.1 173.09 74.29 172.71 73.93 173.345656 72.9065019 174.512348 72.3387121 175.71 72.47 182.71 72.53 189.71 72.47 196.71 72.47 197.92 72.47 197.93 72.47 197.93 71.3 197.93 67.44 197.93 63.5733333 197.93 59.7 197.93 57.7 196.93 56.7 194.93 56.7L150.77 56.7C149.96135 56.5892544 149.147453 56.863175 148.570314 57.4403142 147.993175 58.0174534 147.719254 58.8313501 147.83 59.64 147.83 63.55 147.83 67.46 147.83 71.37 147.83 72.48 147.83 72.5 148.96 72.5L160.42 72.5C160.74 72.5 161.14 72.32 161.35 72.7 160.675767 73.7638125 159.434187 74.3256665 158.19 74.13 154.92 74.05 151.64 74.13 148.37 74.13 147.37 74.13 147.32 74.13 147.31 75.19 147.3 76.25 147.31 77.01 147.31 77.92 147.31 78.83 147.31 78.87 148.31 78.92 150 78.92 151.68 78.92 153.36 78.92L154.96 78.92 148.4 85.2C148.58 85.53 148.78 85.46 148.94 85.46 152.54 85.46 156.13 85.46 159.72 85.46 160.263399 85.4673522 160.783937 85.2416646 161.15 84.84 162.99 83.07 164.85 81.33 166.68 79.56 167.076153 79.122804 167.640037 78.8754228 168.23 78.88 174.69 78.88 181.15 78.88 187.61 78.88 188.61 78.88 188.69 78.96 188.61 79.95 188.53 80.94 188.51 81 187.5 81L176.44 81C175.39 81 175.38 81 175.37 82 175.37 82.7266667 175.37 83.4566667 175.37 84.19 175.37 85.37 175.37 85.38 176.54 85.39 182.46 85.39 188.37 85.39 194.28 85.39 196.69 85.39 197.96 84.09 197.97 81.67 197.97 79.67 197.97 77.58 197.97 75.53 198 74 198.17 74.1 196.48 74.1zM188.48 68.24C185.093333 68.24 181.7 68.24 178.3 68.24 177.67 68.24 177.4 68.07 177.43 67.4 177.46 66.73 177.48 66.53 178.43 66.52 180.15 66.52 181.87 66.52 183.59 66.52 185.31 66.52 186.85 66.52 188.48 66.52 189.12 66.52 189.36 66.71 189.35 67.37 189.34 68.03 189.18 68.24 188.47 68.24L188.48 68.24zM177.48 61.11C177.61 60.77 177.89 60.82 178.15 60.82L180.73 60.82C183.27 60.82 185.8 60.82 188.34 60.82 188.682669 60.8209687 189.000979 60.9973272 189.183505 61.2873397 189.36603 61.5773522 189.387349 61.9406283 189.24 62.25 189.08 62.64 188.72 62.55 188.43 62.55L183.43 62.55C181.76 62.55 180.08 62.55 178.43 62.55 177.53 62.53 177.16 61.91 177.48 61.11zM167.42 68.24C165.79 68.24 164.15 68.24 162.51 68.24 160.87 68.24 159.06 68.24 157.33 68.24 156.64 68.24 156.51 67.96 156.5 67.34 156.49 66.72 156.74 66.49 157.38 66.49 160.713333 66.49 164.076667 66.49 167.47 66.49 168.18 66.49 168.27 66.79 168.28 67.39 168.29 67.99 168.07 68.25 167.42 68.24zM168.24 62.24C168.08 62.65 167.72 62.54 167.42 62.54L162.51 62.54C160.83 62.54 159.15 62.54 157.51 62.54 157.162723 62.5441807 156.838146 62.3678777 156.652613 62.0742863 156.467079 61.7806949 156.447162 61.4118639 156.6 61.1 156.74 60.77 157.03 60.82 157.29 60.81L160 60.81C162.45 60.81 164.91 60.81 167.36 60.81 167.699102 60.8177017 168.011184 60.996771 168.188952 61.2856448 168.366721 61.5745186 168.385939 61.9338113 168.24 62.24zM143.47 45.32C143.47 43.32 142.47 42.32 140.47 42.32 138.19 42.32 135.92 42.32 133.65 42.32 132.25 42.32 132.25 42.32 132.21 40.85 132.21 39.85 132.21 39.85 131.12 39.85L124.85 39.85C123.09 39.85 123.29 39.68 123.27 41.33 123.27 42.33 123.27 42.33 122.27 42.33 119.81 42.33 117.36 42.33 114.9 42.33 114.121707 42.2880737 113.358783 42.557976 112.78 43.08 112.145429 43.7485013 111.841246 44.6647146 111.95 45.58 111.95 51.31 111.95 57.04 111.95 62.76L111.95 69.17C111.95 72.81 111.95 76.45 111.95 80.09 111.899753 81.519378 112.442744 82.9059209 113.450297 83.9210488 114.457849 84.9361767 115.840286 85.4895386 117.27 85.45 120.14 85.45 123 85.45 125.86 85.45 126.93 85.45 126.94 85.45 126.94 84.29 126.94 82.65 126.94 81.01 126.94 79.38 126.94 78.17 126.94 78.16 125.76 78.15 124.35 78.15 122.94 78.15 121.53 78.15 120.53 78.15 120.15 77.77 120.14 76.86 120.14 74.04 120.14 71.22 120.14 68.4 120.14 67.87 120.35 67.67 120.87 67.71 121.18 67.71 121.5 67.71 121.87 67.71L142.33 67.71C143.49 67.71 143.51 67.71 143.51 66.66 143.49 59.5533333 143.476667 52.44 143.47 45.32zM133.33 60.91L121.2 60.91C120.2 60.91 120.2 60.91 120.2 59.85 120.2 56.58 120.2 53.3 120.2 50.03 120.2 49.03 120.2 49.03 121.2 49.03L134.29 49.03C135.36 49.03 135.39 49.03 135.38 50.03 135.38 52.36 135.6 51.96 133.38 52.03 130.43 52.03 127.47 52.03 124.52 52.03 123.46 52.03 123.45 52.03 123.44 53.03 123.44 54.4 123.44 55.76 123.44 57.12 123.44 57.84 123.68 58.06 124.39 58.05 127.48 58.05 130.57 58.05 133.66 58.05 133.98 58.05 134.3 58.05 134.61 58.05 135.12 58.05 135.32 58.21 135.36 58.75 135.49 60.91 135.51 60.91 133.33 60.91z"/>
  </g>
</svg>
