<svg xmlns="http://www.w3.org/2000/svg" width="195" height="32" viewBox="0 0 195 32">
  <g fill="#FFF" fill-rule="evenodd">
    <path d="M31.745568,0.0106289778 C33.0642958,-0.02701112 34.5214087,0.0428919188 35.9758081,0.102040644 C37.7748134,0.174632261 39.5738186,0.271421084 41.3646836,0.459621573 C44.626488,0.760238328 47.854709,1.34868242 51.0109335,2.21795186 C51.7588037,2.42457674 52.4855461,2.70000959 53.1816789,3.04065685 C53.7069945,3.28871459 54.1488809,3.68174275 54.4542784,4.17254837 C55.0919349,5.21840537 55.7594391,6.2481309 56.4784985,7.24290492 C57.6429884,8.89346283 59.1593945,10.2702345 60.9203863,11.2757725 C62.3627052,12.0645854 63.6854353,13.0511669 64.8494355,14.206323 C65.3270522,14.68504 65.75017,15.2142771 66.1111813,15.7845185 C67.0885969,17.2950615 67.2714337,19.179748 66.6023124,20.8471117 C66.1373685,22.0348237 65.4751999,23.137114 64.6432147,24.1083573 C63.7862022,25.0918072 62.7713199,25.9284335 61.6394457,26.584538 C59.7308649,27.732399 57.6830724,28.6357988 55.545078,29.2731165 C53.277164,29.9817473 50.9612972,30.529805 48.6149733,30.9131493 C47.0719351,31.17663 45.5207566,31.3881315 43.9614378,31.5476538 C42.4672414,31.7000066 40.9676181,31.8111345 39.4625679,31.8810375 C37.4871896,31.9751378 35.5145247,32.0369751 33.5418598,31.9751378 C32.4049319,31.9401863 31.2707174,31.9106119 30.1392164,31.8407089 C28.5871334,31.7457124 27.0395728,31.6103873 25.4965346,31.4347335 C22.8135748,31.1361582 20.1532375,30.6637492 17.5326124,30.0205413 C14.5288163,29.3131606 11.6211061,28.2526136 8.8713382,26.8614616 C6.73895361,25.7976732 4.80545825,24.3810646 3.15413748,22.6726565 C1.9965419,21.4794137 1.10612888,20.0575409 0.541102688,18.4999827 C-0.362470089,15.9323904 -0.115547799,13.4535211 1.14077111,11.0526205 C2.12489297,9.26379489 3.4851209,7.70515037 5.1295158,6.48203723 C7.42135488,4.7373327 9.99986488,3.39758312 12.7515456,2.52176122 C14.9797719,1.79740266 17.2626428,1.24989298 19.5785399,0.884416963 C21.3314169,0.599427651 23.1060012,0.39778427 24.864305,0.255289614 C25.8465673,0.174632261 26.8342565,0.14236932 27.8192322,0.0885977519 C29.0755511,0.0106289778 30.3345835,0.0106289778 31.745568,0.0106289778 Z"/>
    <g transform="translate(87)">
      <path d="M43.3063382 19.6807146C43.879696 19.0630735 44.1962639 18.2471077 44.1907859 17.4010173 44.1252713 15.2402607 44.1907859 13.079504 44.1907859 10.9121396 44.1907859 10.1588483 44.1907859 10.1522405 44.9048956 10.1456327 46.2151885 10.1456327 47.5254815 10.1456327 48.8357744 10.1456327 49.4909209 10.1456327 49.4909209 10.1456327 49.4909209 10.7667676 49.4909209 13.6874233 49.4909209 16.6036739 49.4909209 19.5155192 49.485814 20.0283276 49.3283478 20.5278073 49.0388698 20.9494158 48.3837234 21.9273729 47.7285769 22.9317613 47.152048 23.9031106 46.6213793 24.7687348 46.5755191 24.4515595 47.2044597 25.3568306 48.3313116 26.982354 49.4712665 28.5946617 50.6046699 30.2135772L51.0829268 30.9206137C50.8994858 31.1518874 50.7094933 31.0725936 50.5457067 31.0725936 48.999561 31.0725936 47.4468639 31.0725936 45.9007182 31.0725936 45.5130356 31.1099075 45.1377051 30.9231858 44.9311014 30.5902228 44.6100797 30.1210677 44.2759549 29.6783439 43.8763156 29.1695419 43.4730462 29.6202649 43.1234423 30.1170252 42.8346327 30.6496932 42.6773975 30.874359 42.5332653 31.0725936 42.1794862 31.0659857 40.2468041 31.0659857 38.314122 31.0659857 36.368337 31.0659857 36.3972669 30.7554106 36.5341884 30.4651682 36.7548734 30.2466163 37.7769019 28.5880538 38.8120333 26.9427071 39.8471648 25.2907525 40.3516276 24.4779908 40.3516276 24.4779908 39.7619957 23.6784448 39.1068493 22.7665658 38.4517028 21.8348634 37.7048358 20.9560236 37.193727 20.3241364 36.9323753 19.5239227 36.9710717 18.7093653 36.9710717 15.6433376 36.9710717 12.5839177 36.9710717 9.51788993 36.9710717 9.30643974 36.9710717 9.09498955 36.9710717 8.85710809 36.9710717 8.61922662 36.8465939 8.40777643 36.5452265 8.42099207 36.368337 8.42099207 36.1914474 8.42099207 36.0080064 8.42099207 35.7131905 8.42099207 35.5756098 8.30205134 35.5756098 7.99809169 35.5756098 6.61705765 35.5756098 5.22941578 35.5756098 3.84838174 35.5756098 3.52459863 35.7459478 3.43869699 36.0211094 3.45191263 36.2962709 3.46512827 36.3814399 3.45191263 36.5583295 3.45191263 36.8727998 3.45191263 36.9710717 3.29993281 36.9645203 3.0091888 36.9645203 2.46734769 36.9645203 1.92550658 36.9645203 1.38366547 36.9645203 1.04666673 37.0758952.907902546 37.4362257.914510364 38.8906509.914510364 40.3494437.914510364 41.8126042.914510364 42.2056921.914510364 42.3367214 1.07309801 42.3236185 1.44974365 42.3105155 1.8263893 42.3236185 2.40787732 42.3236185 2.89024807 42.3236185 3.37261881 42.4218904 3.49155954 42.8739415 3.46512827 43.529088 3.46512827 44.1842344 3.46512827 44.8393809 3.46512827 46.1496739 3.46512827 47.51893 3.46512827 48.8619803 3.46512827 49.3205828 3.46512827 49.5171268 3.60389245 49.5171268 4.07965538 49.5171268 5.27567051 49.5171268 6.47829346 49.5171268 7.68091641 49.5171268 8.42759989 49.5171268 8.44081553 48.7768112 8.44081553L42.683949 8.44081553C42.5933371 8.42904597 42.5025577 8.46129615 42.439261 8.52774311 42.3759642 8.59419008 42.3476444 8.68696661 42.3629272 8.77781427 42.3629272 8.98265664 42.3629272 9.19410682 42.3629272 9.43859611 42.3629272 12.0817235 42.3629272 14.7248508 42.3629272 17.3679782 42.3214288 18.2419155 42.6670809 19.0892688 43.3063382 19.6807146zM90.7220174 10.0571429L75.4368807 10.0571429C74.8 10.0571429 74.8 10.0571429 74.8 9.38285169 74.8 7.23911467 74.8 5.1017389 74.8 2.95800188 74.8 1.55852965 75.4368807.903322193 76.8953375.896960955 78.9206181.896960955 80.9458987.896960955 82.9775481.896960955 83.5125279.896960955 84.1303022 1.03054694 84.168515.178141126 84.168515-.00633475986 84.365948.0000264775752 84.5060618.0000264775752L89.3718303.0000264775752C89.6839019.0000264775752 89.7666963.165418651 89.7666963.432590623 89.7666963.986018279 89.7666963 1.5330847 89.7666963 2.08651236 89.80081 2.4706927 89.6585974 2.84958914 89.3800356 3.11669061 89.1014738 3.38379207 88.7166402 3.51025871 88.3337148 3.46053964 86.6205057 3.46053964 84.9136654 3.46053964 83.2068252 3.46053964 82.4234619 3.46053964 81.6400987 3.46053964 80.8567354 3.46053964 80.4045501 3.46053964 80.3408621 3.65137676 80.3344932 4.03305101 80.3281244 4.41472526 80.4937134 4.51650505 80.8503666 4.51650505L89.0151771 4.51650505C89.7603275 4.51650505 89.7730652 4.51650505 89.7666963 5.27349231 89.7666963 6.82563424 89.9513917 6.54573979 88.492935 6.54573979 85.9454122 6.54573979 83.4488398 6.54573979 80.9331611 6.54573979 80.3408621 6.54573979 80.2962804 6.59662969 80.2962804 7.09916745 80.2962804 7.43631304 80.4300253 7.57626026 80.7612033 7.55717655 80.9395299 7.55717655 81.1114877 7.55717655 81.2834455 7.55717655L100.485398 7.55717655C100.835683 7.55717655 101.205074 7.62078892 101.166861 7.06100003 101.128648 6.50121113 101.166861 6.55210103 100.52998 6.55210103L93.307753 6.55210103C92.0339916 6.55210103 92.1677366 6.71749321 92.154999 5.39435582L92.154999 5.22260241C92.154999 4.50378258 92.154999 4.49742134 92.8555677 4.49742134L100.498136 4.49742134C101.135017 4.49742134 101.262393 4.35747412 101.166861 3.75315656 101.165984 3.66661863 101.127608 3.58470565 101.06165 3.52858584 100.995692 3.47246602 100.908624 3.44764593 100.822945 3.46053964L92.8300925 3.46053964C92.1932118 3.46053964 92.1932118 3.46053964 92.154999 2.79260971 92.154999 2.32823938 92.154999 1.86386905 92.154999 1.40585995 92.154999.947850855 92.3142191.896960955 92.6772411.903322193L104.31942.903322193C104.667305.884137193 105.016215.909793273 105.357536.979657042 106.134185 1.11314853 106.707818 1.77670637 106.726829 2.56360516 106.726829 4.90454054 106.726829 7.24547591 106.726829 9.56096634 106.726829 9.87902821 106.644035 10.0507816 106.29375 10.0316979 106.089949 10.0316979 105.886147 10.0316979 105.65687 10.0316979L90.7220174 10.0571429zM67.9186363 24.3149594L72.0634146 29.9887413C71.8952012 30.2520259 71.6597025 30.1532942 71.4713034 30.1532942 69.8228121 30.1532942 68.1675922 30.1532942 66.5191008 30.1532942 66.1246682 30.1900317 65.7433502 30.0035217 65.5367345 29.6727999 63.585459 26.9675512 61.6072694 24.2688846 59.6358083 21.5702181 59.5227829 21.4308367 59.4278594 21.2782844 59.3532098 21.1160522 59.2692538 20.9357406 59.272796 20.7280255 59.3628534 20.5505537 59.4529107 20.3730818 59.6199006 20.244737 59.8174788 20.2011384 60.0816076 20.1261531 60.3575919 20.0993784 60.6316316 20.1221531L70.9935774 20.1221531C71.1752479 20.1221531 71.3569183 20.1221531 71.5385888 20.1221531 71.6316228 20.1153883 71.7228129 20.150034 71.7867918 20.2164524 71.8507706 20.2828707 71.8807121 20.3739755 71.8682871 20.464423 71.8682871 21.6272631 71.8682871 22.7922972 71.8682871 23.9595253 71.8682871 24.3017952 71.57896 24.288631 71.3367327 24.288631L67.9186363 24.288631 67.9186363 24.3149594z"/>
      <path fill-rule="nonzero" d="M35.5136014 26.2235302L12.6018425 26.2235302C11.5461813 26.2235302 11.3832706 26.0383568 11.3702377 24.9008626 11.3702377 24.6297158 11.3702377 24.3585689 11.3702377 24.0874221 11.3702377 23.029288 11.3702377 23.128488 12.3542183 23.128488L32.6268241 23.128488C33.8258467 23.128488 33.6824853 23.2475281 33.6890018 22.090194 33.6890018 21.3032068 33.6890018 20.5228329 33.6890018 19.742459 33.6890018 18.5983515 33.8193303 18.7173916 32.7115376 18.7173916L12.7908189 18.7173916C11.3572049 18.7173916 11.3767542 18.7173916 11.3637213 17.2161639 11.3514251 16.7673508 11.5351376 16.3359528 11.8656581 16.0375041 12.1961786 15.7390554 12.6397368 15.6040495 13.0775417 15.6686428L33.4413775 15.6686428C33.6499032 15.6686428 33.8584289 15.6686428 34.0930203 15.6686428 34.516588 15.7149361 34.6664659 15.536376 34.6599494 15.1065091 34.6599494 13.8764282 34.6599494 12.639734 34.6599494 11.4096531 34.6599494 10.6887993 34.6599494 10.6821859 33.891011 10.6755726 32.5877255 10.6755726 31.28444 10.6755726 29.9811545 10.6755726 29.7397865 10.72171 29.4901774 10.6719927 29.2838968 10.5366925L34.164701 2.17081993C34.027856 2.08484654 33.982241 2.03193984 33.9301096 2.03193984 31.9751813 2.03193984 29.9616053 2.03193984 27.9740949 2.03193984 27.606172 2.01564126 27.276135 2.25998653 27.1790907 2.62052692 27.0370368 3.10423965 26.5498309 3.39339254 26.0647816 3.28186072 25.739254 3.26200281 25.4128451 3.26200281 25.0873175 3.28186072 23.340915 3.28186072 21.587996 3.28186072 19.8741756 3.28186072 19.4310585 3.28186072 19.2225328 3.16943397 19.2225328 2.6866603 19.2225328 2.20388662 19.2225328 1.84015303 19.2225328 1.42351274 19.2225328 1.00687245 19.1508521.914285714 18.7794157.914285714L12.6279082.914285714C12.2695047.914285714 12.1652419 1.07300583 12.1717583 1.40367273 12.1717583 1.8864464 12.1717583 2.36922007 12.1717583 2.84538041 12.1717583 3.14959396 12.0674955 3.29508739 11.7612234 3.27524738 11.4549513 3.25540736 11.344172 3.27524738 11.1095806 3.27524738L1.6281787 3.27524738C.976535951 3.27524738.937437387 3.27524738.930920959 3.93658118.930920959 4.95503523.930920959 5.98010262.930920959 7.00517001.930920959 8.0302374.813625265 7.93765067 1.81715509 7.93765067L11.1551956 7.93765067C11.3376556 7.93765067 11.5135991 7.93765067 11.6895427 7.93765067 12.0153641 7.93765067 12.1913076 8.01701072 12.1782747 8.38735765 12.1782747 9.01562476 12.1782747 9.65050521 12.1782747 10.2787723 12.1782747 10.5895992 12.0479462 10.7152526 11.754707 10.7020259 11.4614677 10.6887993 11.3376556 10.7020259 11.1030642 10.7020259L.455221755 10.7020259C.168498947 10.7020259.0251375436 10.821066.0251375436 11.1318929.0251375436 12.5118761.0251375436 13.8940638.0251375436 15.2784558.0251375436 15.5958961.168498947 15.7083228.455221755 15.6950961.741944563 15.6818695.989568806 15.6950961 1.25674233 15.6950961L3.81769832 15.6950961C3.71686945 15.947674 3.54162674 16.1624785 3.31593341 16.3101366 2.37756785 17.1897105 1.4392023 18.0692845.481287465 18.9157917.163311703 19.1834932-.0107631384 19.5883474.0121046887 20.0069925.0121046887 22.1431007.0121046887 24.2792089.0121046887 26.415317.0121046887 26.5806505-.0660924407 26.7724373.175015375 26.9642241L4.87335957 22.6126477C4.87335957 24.3850223 4.87335957 25.9193167 4.87335957 27.4536111 4.85311971 28.4290421 5.22918668 29.3699637 5.91326432 30.0554584 6.59734196 30.7409532 7.52917388 31.1106398 8.4899768 31.0777203 9.61080232 31.0115869 10.7381443 31.0777203 11.8654862 31.0777203 18.5035537 31.0777203 25.1437932 31.0777203 31.7862049 31.0777203 32.2553996 31.1329261 32.7117983 30.8987309 32.946129 30.4825199 33.708551 29.2656657 34.5296209 28.0884915 35.3181086 26.884864 35.4484372 26.7129172 35.689545 26.5475838 35.5136014 26.2235302zM19.6135185 7.95087734L24.0251398 7.95087734 22.5524272 10.4639458C22.4398383 10.6450225 22.2337772 10.7431307 22.0245966 10.7152526 21.223076 10.7152526 20.4215555 10.7152526 19.6265513 10.7152526 19.3202792 10.7152526 19.1964671 10.5895992 19.1964671 10.2853857 19.1964671 9.62405185 19.1964671 9.0222381 19.1964671 8.38735765 19.1964671 8.09637078 19.3007299 7.95087734 19.6135185 7.95087734zM106.661369 23.5057064C101.801929 23.5057064 96.9424889 23.5057064 92.0765695 23.5057064 91.8109201 23.5057064 91.5063952 23.6324154 91.2601836 23.3923352 91.6720415 22.7097749 92.4279704 22.3311218 93.2039597 22.4186763 97.7394371 22.4586897 102.274915 22.4186763 106.810392 22.4186763 107.594382 22.4186763 107.600861 22.4186763 107.600861 21.6384155 107.600861 19.0642216 107.600861 16.4855818 107.600861 13.9024961 107.600861 12.5687169 106.952936 11.9018273 105.657085 11.9018273L77.0447014 11.9018273C76.5207566 11.8279722 75.9934123 12.010647 75.6194692 12.3955352 75.2455261 12.7804233 75.068046 13.3232025 75.1398009 13.8624827 75.1398009 16.4700211 75.1398009 19.0775594 75.1398009 21.6850978 75.1398009 22.4253452 75.1398009 22.438683 75.8719565 22.438683L83.297181 22.438683C83.5045171 22.438683 83.7636873 22.3186429 83.8997516 22.5720609 83.4628988 23.2815065 82.658448 23.656201 81.8523075 23.5257131 79.7335916 23.4723619 77.6083964 23.5257131 75.4896805 23.5257131 74.8417552 23.5257131 74.8093589 23.5257131 74.8028797 24.2326161 74.7964004 24.939519 74.8028797 25.4463551 74.8028797 26.0532247 74.8028797 26.6600942 74.8028797 26.6867698 75.450805 26.7201143 76.5457989 26.7201143 77.6343135 26.7201143 78.722828 26.7201143L79.7595086 26.7201143 75.5091183 30.908181C75.6257449 31.1282545 75.7553299 31.0815723 75.858998 31.0815723 78.1915293 31.0815723 80.5175813 31.0815723 82.8436333 31.0815723 83.1957154 31.0864754 83.5329849 30.9359666 83.7701665 30.6681007 84.9623492 29.4877061 86.1674903 28.3273182 87.3531937 27.1469236 87.6098713 26.8553621 87.9752259 26.6903862 88.357478 26.6934387 92.5430758 26.6934387 96.7286736 26.6934387 100.914271 26.6934387 101.562197 26.6934387 101.614031 26.7467899 101.562197 27.4070106 101.510363 28.0672313 101.497404 28.1072446 100.843 28.1072446L93.6769452 28.1072446C92.9966235 28.1072446 92.9901443 28.1072446 92.983665 28.7741342 92.983665 29.2587407 92.983665 29.7455701 92.983665 30.2346225 92.983665 31.0215522 92.983665 31.0282211 93.7417377 31.03489 97.5774558 31.03489 101.406695 31.03489 105.235933 31.03489 106.797434 31.03489 107.620299 30.1679335 107.626778 28.5540607 107.626778 27.2202815 107.626778 25.8264822 107.626778 24.4593585 107.646216 23.4390174 107.756363 23.5057064 106.661369 23.5057064zM101.477966 19.5977333C99.2836592 19.5977333 97.0850325 19.5977333 94.8820863 19.5977333 94.4738933 19.5977333 94.2989535 19.4843621 94.3183913 19.0375461 94.337829 18.59073 94.3507875 18.4573521 94.9663166 18.4506832 96.0807482 18.4506832 97.1951798 18.4506832 98.3096114 18.4506832 99.424043 18.4506832 100.421848 18.4506832 101.477966 18.4506832 101.892639 18.4506832 102.048141 18.5773922 102.041661 19.0175394 102.035182 19.4576865 101.931514 19.5977333 101.471487 19.5977333L101.477966 19.5977333zM94.3507875 14.8428105C94.4350178 14.616068 94.6164369 14.6494125 94.7848975 14.6494125L96.4565449 14.6494125C98.1022753 14.6494125 99.7415264 14.6494125 101.387257 14.6494125 101.609281 14.6500585 101.815522 14.7676702 101.933785 14.9610765 102.052048 15.1544828 102.065861 15.3967478 101.97039 15.6030646 101.866722 15.8631515 101.633468 15.8031315 101.44557 15.8031315L98.2059434 15.8031315C97.123908 15.8031315 96.0353934 15.8031315 94.9663166 15.8031315 94.3831838 15.7897937 94.1434514 15.3763221 94.3507875 14.8428105zM87.8326585 19.5977333C86.7765402 19.5977333 85.7139426 19.5977333 84.651345 19.5977333 83.5887474 19.5977333 82.4160025 19.5977333 81.2950917 19.5977333 80.8480232 19.5977333 80.7637929 19.4110042 80.7573136 18.9975327 80.7508344 18.5840611 80.9128157 18.4306765 81.327488 18.4306765 83.4872391 18.4306765 85.6664281 18.4306765 87.8650548 18.4306765 88.3250818 18.4306765 88.383395 18.6307434 88.3898743 19.0308772 88.3963535 19.4310109 88.25381 19.6044022 87.8326585 19.5977333zM88.3639573 15.5963957C88.2602892 15.8698204 88.0270361 15.7964626 87.8326585 15.7964626L84.651345 15.7964626C83.5628304 15.7964626 82.4743158 15.7964626 81.4117183 15.7964626 81.1867089 15.7992507 80.9764072 15.681676 80.8561954 15.485883 80.7359836 15.2900899 80.7230786 15.0441204 80.8221062 14.8361416 80.9128157 14.616068 81.1007141 14.6494125 81.2691747 14.6427436L83.0250524 14.6427436C84.6124695 14.6427436 86.2063659 14.6427436 87.793783 14.6427436 88.013496 14.6478797 88.2157014 14.7672992 88.3308822 14.9599461 88.4460629 15.1525931 88.4585149 15.3922017 88.3639573 15.5963957zM71.1246465 4.53626566C71.1246465 3.2131589 70.4603218 2.55160552 69.1316723 2.55160552 67.6170118 2.55160552 66.1089946 2.55160552 64.6009775 2.55160552 63.6709228 2.55160552 63.6709228 2.55160552 63.6443498 1.57912205 63.6443498.917568674 63.6443498.917568674 62.9202358.917568674L58.7549196.917568674C57.5857081.917568674 57.718573.805104599 57.7052865 1.89666768 57.7052865 2.55822106 57.7052865 2.55822106 57.0409618 2.55822106 55.4067229 2.55822106 53.7791272 2.55822106 52.1448884 2.55822106 51.6278487 2.53048456 51.1210196 2.70903932 50.7365199 3.05438609 50.3149584 3.49663538 50.1128822 4.10275938 50.1851303 4.70826954 50.1851303 8.49897041 50.1851303 12.2896713 50.1851303 16.0737566L50.1851303 20.3143138C50.1851303 22.7223681 50.1851303 25.1304224 50.1851303 27.5384767 50.1517501 28.4840865 50.5124726 29.4013587 51.1818146 30.07292 51.8511565 30.7444813 52.7695434 31.1105597 53.719338 31.0844028 55.6259501 31.0844028 57.5259188 31.0844028 59.4258876 31.0844028 60.1367151 31.0844028 60.1433584 31.0844028 60.1433584 30.3170009 60.1433584 29.2320533 60.1433584 28.1471058 60.1433584 27.0687738 60.1433584 26.2682942 60.1433584 26.2616787 59.3594552 26.2550631 58.4227573 26.2550631 57.4860594 26.2550631 56.5493615 26.2550631 55.8850367 26.2550631 55.6325933 26.0036729 55.6259501 25.4016593 55.6259501 23.5360787 55.6259501 21.6704982 55.6259501 19.8049177 55.6259501 19.4542944 55.7654583 19.3219837 56.1109071 19.3484458 56.3168478 19.3484458 56.5294317 19.3484458 56.7752319 19.3484458L70.3673163 19.3484458C71.137933 19.3484458 71.1512195 19.3484458 71.1512195 18.6538148 71.137933 13.9523754 71.1290754 9.24652573 71.1246465 4.53626566zM64.3883935 14.8498829L56.3301343 14.8498829C55.6658095 14.8498829 55.6658095 14.8498829 55.6658095 14.1486363 55.6658095 11.9853567 55.6658095 9.81546164 55.6658095 7.65218208 55.6658095 6.9906287 55.6658095 6.9906287 56.3301343 6.9906287L65.0261453 6.9906287C65.7369728 6.9906287 65.7569025 6.9906287 65.7502593 7.65218208 65.7502593 9.19360146 65.8964107 8.92898011 64.4216098 8.97528885 62.4618518 8.97528885 60.4954505 8.97528885 58.5356925 8.97528885 57.8315082 8.97528885 57.824865 8.97528885 57.8182217 9.63684223 57.8182217 10.5431704 57.8182217 11.442883 57.8182217 12.3425956 57.8182217 12.818914 57.9776597 12.9644557 58.4493303 12.9578402 60.5020937 12.9578402 62.5548572 12.9578402 64.6076207 12.9578402 64.8202046 12.9578402 65.0327885 12.9578402 65.2387292 12.9578402 65.5775348 12.9578402 65.7103998 13.0636887 65.7369728 13.4209276 65.823335 14.8498829 65.8366215 14.8498829 64.3883935 14.8498829z"/>
    </g>
  </g>
</svg>
